{"title":"Kung Fu Panda - AVM","uid":5045343,"size":243539931,"categoryP":"video","categoryS":"handheld","magnet":"?xt=urn:btih:c99f03a22316876fb5cea059e6907027f473bc8e&amp;dn=Kung+Fu+Panda+-+AVM&amp;tr=udp%3A%2F%2Ftracker.openbittorrent.com%3A80&amp;tr=udp%3A%2F%2Fopen.demonii.com%3A1337&amp;tr=udp%3A%2F%2Ftracker.coppersurfer.tk%3A6969&amp;tr=udp%3A%2F%2Fexodus.desync.com%3A6969","seeders":0,"leechers":0,"uploader":"AVIDM","files":1,"time":1249596816,"description":"AVIDMobile - http://www.avidmobile.com.ar (Mobile media)\n\nVideo\nID                               : 1\nFormat                           : MPEG-4 Visual\nFormat profile                   : Advanced Simple@L5\nFormat settings, BVOP            : Yes\nFormat settings, QPel            : No\nFormat settings, GMC             : No warppoints\nFormat settings, Matrix          : Default (H.263)\nCodec ID                         : 20\nDuration                         : 1h 31mn\nBit rate mode                    : Variable\nBit rate                         : 287 Kbps\nMaximum bit rate                 : 1 067 Kbps\nWidth                            : 320 pixels\nHeight                           : 240 pixels\nDisplay aspect ratio             : 4/3\nFrame rate mode                  : Variable\nFrame rate                       : 23.976 fps\nMinimum frame rate               : 23.974 fps\nMaximum frame rate               : 23.981 fps\nResolution                       : 24 bits\nColorimetry                      : 4:2:0\nScan type                        : Progressive\nBits/(Pixel*Frame)               : 0.156\nStream size                      : 189 MiB (81%)\n\nAudio\nID                               : 2\nFormat                           : AAC\nFormat/Info                      : Advanced Audio Codec\nFormat version                   : Version 4\nFormat profile                   : LC\nFormat settings, SBR             : No\nCodec ID                         : 40\nDuration                         : 1h 31mn\nBit rate mode                    : Variable\nBit rate                         : 62.7 Kbps\nMaximum bit rate                 : 151 Kbps\nChannel(s)                       : 2 channels\nChannel positions                : L R\nSampling rate                    : 22.05 KHz\nResolution                       : 16 bits\nStream size                      : 41.3 MiB (18%)","torrent":{"xt":"urn:btih:c99f03a22316876fb5cea059e6907027f473bc8e","amp;dn":"Kung+Fu+Panda+-+AVM","amp;tr":["udp%3A%2F%2Ftracker.openbittorrent.com%3A80","udp%3A%2F%2Fopen.demonii.com%3A1337","udp%3A%2F%2Ftracker.coppersurfer.tk%3A6969","udp%3A%2F%2Fexodus.desync.com%3A6969"],"infoHash":"c99f03a22316876fb5cea059e6907027f473bc8e","infoHashBuffer":{"type":"Buffer","data":[201,159,3,162,35,22,135,111,181,206,160,89,230,144,112,39,244,115,188,142]},"announce":[],"urlList":[]}}